<svg width="128" height="64" viewBox="0 0 128 64" fill="white" xmlns="http://www.w3.org/2000/svg">
<path d="M0 4C0 1.79086 1.79086 0 4 0H124C126.209 0 128 1.79086 128 4V12C128 14.2091 126.209 16 124 16H4C1.79086 16 0 14.2091 0 12V4Z" />
<path d="M24 4C24 1.79086 25.7909 0 28 0H36C38.2091 0 40 1.79086 40 4V60C40 62.2091 38.2091 64 36 64H28C25.7909 64 24 62.2091 24 60V4Z"/>
<path d="M88 4C88 1.79086 89.7909 0 92 0H100C102.209 0 104 1.79086 104 4V60C104 62.2091 102.209 64 100 64H92C89.7909 64 88 62.2091 88 60V4Z"/>
</svg>
